<svg width="352" height="68" viewBox="0 0 352 68" fill="none" xmlns="http://www.w3.org/2000/svg">
<path d="M351 33.9999C351 35.9703 349.971 38.0171 347.738 40.1249C345.505 42.2327 342.157 44.3134 337.754 46.3246C328.953 50.3443 316.155 53.9893 300.261 57.0597C268.491 63.1971 224.557 66.9999 176 66.9999C127.443 66.9999 83.5092 63.1971 51.7389 57.0597C35.8455 53.9893 23.0473 50.3443 14.2464 46.3246C9.84292 44.3134 6.49482 42.2327 4.26217 40.1249C2.02944 38.0171 1 35.9703 1 33.9999C1 32.0295 2.02944 29.9827 4.26217 27.8748C6.49482 25.7671 9.84292 23.6864 14.2464 21.6752C23.0473 17.6555 35.8455 14.0104 51.7389 10.9401C83.5092 4.80265 127.443 0.999878 176 0.999878C224.557 0.999878 268.491 4.80265 300.261 10.9401C316.155 14.0104 328.953 17.6555 337.754 21.6752C342.157 23.6864 345.505 25.7671 347.738 27.8748C349.971 29.9827 351 32.0295 351 33.9999Z" stroke="url(#paint0_linear_43_6923)" stroke-width="2"/>
<defs>
<linearGradient id="paint0_linear_43_6923" x1="176" y1="27.1999" x2="176" y2="67.9999" gradientUnits="userSpaceOnUse">
<stop stop-opacity="0"/>
<stop offset="1" stop-color="#2363F6"/>
</linearGradient>
</defs>
</svg>
