<svg width="103" height="101" viewBox="0 0 103 101" fill="none" xmlns="http://www.w3.org/2000/svg">
<g id="Highlight_10" opacity="0.8">
<g id="Group">
<path id="Vector" fill-rule="evenodd" clip-rule="evenodd" d="M49.7985 81.6584C55.6148 87.2061 61.9557 92.4384 65.7791 99.656C66.0082 100.085 66.5411 100.247 66.9743 100.017C67.4048 99.7839 67.5717 99.2491 67.345 98.8176C63.4316 91.4318 56.9765 86.0477 51.0243 80.3718C50.6741 80.0344 50.1114 80.0513 49.7739 80.4071C49.4337 80.7606 49.4482 81.321 49.7985 81.6584Z" fill="white"/>
<path id="Vector_2" fill-rule="evenodd" clip-rule="evenodd" d="M57.1759 72.4629C60.5928 72.4265 63.7871 72.9757 66.8133 74.5588C67.2454 74.7852 67.7801 74.6157 68.0106 74.1838C68.2386 73.7495 68.0732 73.2138 67.6437 72.9898C64.3533 71.268 60.888 70.6555 57.174 70.6942C56.6849 70.6982 56.2884 71.0979 56.2908 71.5878C56.2907 72.075 56.6894 72.4693 57.1759 72.4629Z" fill="white"/>
<g id="Group_2">
<path id="Vector_3" fill-rule="evenodd" clip-rule="evenodd" d="M69.0827 48.9936C72.6026 46.8268 76.3652 46.0484 80.4393 46.719C80.9198 46.7978 81.3782 46.4712 81.4601 45.9882C81.5445 45.5076 81.2211 45.0515 80.7406 44.9727C76.231 44.2315 72.0632 45.0892 68.1658 47.4882C67.7478 47.744 67.6165 48.292 67.8684 48.7062C68.1228 49.123 68.6673 49.2518 69.0827 48.9936Z" fill="white"/>
</g>
<path id="Vector_4" fill-rule="evenodd" clip-rule="evenodd" d="M43.4106 18.3921C42.3593 18.533 41.3179 18.7678 40.3063 19.106C39.8556 19.2563 38.9611 19.6333 38.4065 20.1495C37.8134 20.6976 37.5578 21.3823 37.8338 22.1159C38.2008 23.0897 38.7816 23.5506 39.3968 23.7221C39.9888 23.8878 40.6707 23.7762 41.3594 23.4215C42.6752 22.7433 44.0429 21.1224 44.6554 20.0447C45.7055 19.9733 46.7602 20.0016 47.8053 20.1243C55.5889 21.0388 61.382 28.5715 62.1277 38.4541C62.388 41.9135 59.9163 46.4366 56.7484 50.8616C51.8166 57.7522 45.0813 64.3334 43.1721 66.3198C42.7017 66.8113 42.4773 67.1527 42.4491 67.2361C42.305 67.641 42.4522 67.9138 42.5771 68.0801C42.7603 68.3186 42.9732 68.4352 43.1809 68.4895C43.463 68.5614 43.781 68.5257 44.1032 68.3178C44.2799 68.2018 44.4819 68.0003 44.681 67.7707C44.8175 67.61 44.941 67.4112 45.0738 67.3278C45.9275 66.7967 46.8077 66.3203 47.6872 65.8342C50.6377 64.1947 53.6876 62.9172 56.8499 61.7466C66.8974 58.0263 77.1869 53.7986 88.0481 53.8768C88.5352 53.8802 88.9393 53.4878 88.946 52.9985C88.9552 52.5115 88.5657 52.1125 88.0757 52.1071C76.9983 52.0259 66.496 56.294 56.2489 60.0874C53.5592 61.0835 50.948 62.1556 48.4092 63.452C51.6566 60.0291 56.0185 55.1699 59.2697 50.318C62.1614 46.0031 64.1431 41.6684 63.8903 38.3056C63.0736 27.4795 56.5511 19.3667 48.0262 18.3669C47.1141 18.2603 46.1922 18.2169 45.2734 18.2434C47.0431 10.8623 43.0475 3.6299 35.7919 1.33784C35.3264 1.19008 34.8285 1.4501 34.6773 1.91518C34.5287 2.38263 34.7822 2.87889 35.2476 3.02666C41.7858 5.0922 45.2932 11.7357 43.4106 18.3921ZM42.291 20.3843C41.8064 20.4933 41.3275 20.6276 40.8521 20.7842C40.5984 20.8696 40.1293 21.0507 39.7631 21.3123C39.6782 21.3744 39.5671 21.4914 39.5169 21.5466C39.6156 21.7995 39.7172 21.9705 39.8847 22.0166C40.0931 22.0754 40.3191 21.9734 40.5603 21.8493C41.1662 21.5386 41.7917 20.9653 42.291 20.3843Z" fill="white"/>
</g>
</g>
</svg>
